<?xml version="1.0" encoding="UTF-8" standalone="no"?>
<!-- Generator: Adobe Illustrator 17.0.1, SVG Export Plug-In . SVG Version: 6.00 Build 0)  -->

<svg
   xmlns:dc="http://purl.org/dc/elements/1.1/"
   xmlns:cc="http://creativecommons.org/ns#"
   xmlns:rdf="http://www.w3.org/1999/02/22-rdf-syntax-ns#"
   xmlns:svg="http://www.w3.org/2000/svg"
   xmlns="http://www.w3.org/2000/svg"
   xmlns:sodipodi="http://sodipodi.sourceforge.net/DTD/sodipodi-0.dtd"
   xmlns:inkscape="http://www.inkscape.org/namespaces/inkscape"
   version="1.1"
   id="Layer_1"
   x="0px"
   y="0px"
   width="438.43597"
   height="298.7287"
   viewBox="0 0 438.43597 298.7287"
   enable-background="new 0 0 217.5 145"
   xml:space="preserve"
   inkscape:version="0.48.4 r9939"
   sodipodi:docname="blanckdisplay.svg"
   inkscape:export-filename="C:\Users\richard\Desktop\OpenLP Guide\blanckdisplay.png"
   inkscape:export-xdpi="102.64"
   inkscape:export-ydpi="102.64"><metadata
   id="metadata15"><rdf:RDF><cc:Work
       rdf:about=""><dc:format>image/svg+xml</dc:format><dc:type
         rdf:resource="http://purl.org/dc/dcmitype/StillImage" /><dc:title></dc:title></cc:Work></rdf:RDF></metadata><defs
   id="defs13" /><sodipodi:namedview
   pagecolor="#ffffff"
   bordercolor="#666666"
   borderopacity="1"
   objecttolerance="10"
   gridtolerance="10"
   guidetolerance="10"
   inkscape:pageopacity="0"
   inkscape:pageshadow="2"
   inkscape:window-width="1366"
   inkscape:window-height="705"
   id="namedview11"
   showgrid="false"
   inkscape:zoom="1.4142136"
   inkscape:cx="118.92533"
   inkscape:cy="87.572496"
   inkscape:window-x="-8"
   inkscape:window-y="-8"
   inkscape:window-maximized="1"
   inkscape:current-layer="Layer_1"
   fit-margin-top="0"
   fit-margin-left="0"
   fit-margin-right="0"
   fit-margin-bottom="0" />




<g
   id="g3020"
   transform="matrix(0.96945096,0,0,0.96945096,3.7885435,4.5629371)"><path
     inkscape:connector-curvature="0"
     style="fill:#4e9a06"
     id="path3"
     d="m 337.36742,150.68193 h -41 c -7.732,0 -14,6.268 -14,14 v 41 c 0,7.732 6.268,14 14,14 h 41 c 7.732,0 14,-6.268 14,-14 v -41 c 0,-7.732 -6.268,-14 -14,-14 z m -17.194,45.77 -2.046,-2.197 9.224,-8.572 h -26.984 v -3 h 26.978 l -9.219,-8.569 2.046,-2.197 13.194,12.27 -13.193,12.265 z" /><path
     inkscape:connector-curvature="0"
     style="fill:#4e9a06"
     id="path5"
     d="m 191.36742,150.68193 h -41 c -7.732,0 -14,6.268 -14,14 v 41 c 0,7.732 6.268,14 14,14 h 41 c 7.732,0 14,-6.268 14,-14 v -41 c 0,-7.732 -6.268,-14 -14,-14 z m -5,37 h -26.978 l 9.219,8.569 -2.046,2.197 -13.195,-12.269 13.194,-12.267 2.046,2.197 -9.224,8.572 h 26.984 v 3.001 z" /><path
     inkscape:connector-curvature="0"
     style="fill:#204a87"
     id="path7"
     d="m 264.36742,77.681931 h -41 c -7.732,0 -14,6.268 -14,14 v 40.999999 c 0,7.732 6.268,14 14,14 h 41 c 7.732,0 14,-6.268 14,-14 V 91.681931 c 0,-7.732 -6.268,-14 -14,-14 z m -10.928,32.739999 -9.072,-9.763 v 28.023 h -3 v -26.94 l -8.069,8.681 -2.197,-2.046 12.269,-13.194999 12.267,13.193999 -2.198,2.046 z" /><path
     inkscape:connector-curvature="0"
     style="fill:#204a87"
     id="path9"
     d="m 264.36742,150.68193 h -41 c -7.732,0 -14,6.268 -14,14 v 41 c 0,7.732 6.268,14 14,14 h 41 c 7.732,0 14,-6.268 14,-14 v -41 c 0,-7.732 -6.268,-14 -14,-14 z m -20.001,50.001 -12.267,-13.194 2.197,-2.046 8.071,8.685 v -26.446 h 3 v 27.519 l 9.071,-9.758 2.197,2.046 -12.269,13.194 z" /><text
     sodipodi:linespacing="125%"
     id="text2992"
     y="23.484375"
     x="243.02368"
     style="font-size:40px;font-style:normal;font-variant:normal;font-weight:normal;font-stretch:normal;text-align:center;line-height:125%;letter-spacing:0px;word-spacing:0px;text-anchor:middle;fill:#204a87;fill-opacity:1;stroke:none;font-family:Open Sans;-inkscape-font-specification:Open Sans"
     xml:space="preserve"><tspan
       style="font-size:32px;fill:#204a87"
       y="23.484375"
       x="243.02368"
       id="tspan2994"
       sodipodi:role="line">Previous</tspan><tspan
       style="font-size:32px;fill:#204a87"
       id="tspan2996"
       y="63.484375"
       x="243.02368"
       sodipodi:role="line">Verse</tspan></text>
<text
     xml:space="preserve"
     style="font-size:40px;font-style:normal;font-variant:normal;font-weight:normal;font-stretch:normal;text-align:center;line-height:125%;letter-spacing:0px;word-spacing:0px;text-anchor:middle;fill:#204a87;fill-opacity:1;stroke:none;font-family:Open Sans;-inkscape-font-specification:Open Sans"
     x="244.69556"
     y="258.4162"
     id="text2998"
     sodipodi:linespacing="125%"><tspan
       style="font-size:32px;fill:#204a87"
       sodipodi:role="line"
       id="tspan3000"
       x="244.69556"
       y="258.4162">Next</tspan><tspan
       style="font-size:32px;fill:#204a87"
       sodipodi:role="line"
       x="244.69556"
       y="298.4162"
       id="tspan3002">Verse</tspan></text>
<text
     sodipodi:linespacing="125%"
     id="text3004"
     y="172.76006"
     x="402.2016"
     style="font-size:40px;font-style:normal;font-variant:normal;font-weight:normal;font-stretch:normal;text-align:center;line-height:125%;letter-spacing:0px;word-spacing:0px;text-anchor:middle;fill:#4e9a06;fill-opacity:1;stroke:none;font-family:Open Sans;-inkscape-font-specification:Open Sans"
     xml:space="preserve"><tspan
       style="font-size:32px;fill:#4e9a06"
       id="tspan3008"
       y="172.76006"
       x="402.2016"
       sodipodi:role="line">Next</tspan><tspan
       style="font-size:32px;fill:#4e9a06"
       id="tspan3018"
       y="212.76006"
       x="402.2016"
       sodipodi:role="line">Song</tspan></text>
<text
     xml:space="preserve"
     style="font-size:40px;font-style:normal;font-variant:normal;font-weight:normal;font-stretch:normal;text-align:center;line-height:125%;letter-spacing:0px;word-spacing:0px;text-anchor:middle;fill:#4e9a06;fill-opacity:1;stroke:none;font-family:Open Sans;-inkscape-font-specification:Open Sans"
     x="67.171875"
     y="173.08037"
     id="text3010"
     sodipodi:linespacing="125%"><tspan
       style="font-size:32px;fill:#4e9a06"
       sodipodi:role="line"
       id="tspan3012"
       x="67.171875"
       y="173.08037">Previous</tspan><tspan
       style="font-size:32px;fill:#4e9a06"
       sodipodi:role="line"
       x="67.171875"
       y="213.08037"
       id="tspan3014">Song</tspan></text>
</g></svg>