<?xml version="1.0" encoding="UTF-8" standalone="no"?>
<!-- Generator: Adobe Illustrator 17.0.1, SVG Export Plug-In . SVG Version: 6.00 Build 0)  -->

<svg
   xmlns:dc="http://purl.org/dc/elements/1.1/"
   xmlns:cc="http://creativecommons.org/ns#"
   xmlns:rdf="http://www.w3.org/1999/02/22-rdf-syntax-ns#"
   xmlns:svg="http://www.w3.org/2000/svg"
   xmlns="http://www.w3.org/2000/svg"
   xmlns:sodipodi="http://sodipodi.sourceforge.net/DTD/sodipodi-0.dtd"
   xmlns:inkscape="http://www.inkscape.org/namespaces/inkscape"
   version="1.1"
   id="Layer_1"
   x="0px"
   y="0px"
   width="185"
   height="70"
   viewBox="0 0 185 70.000001"
   enable-background="new 0 0 217.5 145"
   xml:space="preserve"
   inkscape:version="0.48.4 r9939"
   sodipodi:docname="blanckdisplay.svg"
   inkscape:export-filename="C:\Users\richard\Desktop\OpenLP Guide\blanckdisplay.png"
   inkscape:export-xdpi="102.64"
   inkscape:export-ydpi="102.64"><metadata
   id="metadata15"><rdf:RDF><cc:Work
       rdf:about=""><dc:format>image/svg+xml</dc:format><dc:type
         rdf:resource="http://purl.org/dc/dcmitype/StillImage" /><dc:title></dc:title></cc:Work></rdf:RDF></metadata><defs
   id="defs13" /><sodipodi:namedview
   pagecolor="#ffffff"
   bordercolor="#666666"
   borderopacity="1"
   objecttolerance="10"
   gridtolerance="10"
   guidetolerance="10"
   inkscape:pageopacity="0"
   inkscape:pageshadow="2"
   inkscape:window-width="1366"
   inkscape:window-height="705"
   id="namedview11"
   showgrid="false"
   inkscape:zoom="1.4142136"
   inkscape:cx="118.92533"
   inkscape:cy="81.562089"
   inkscape:window-x="-8"
   inkscape:window-y="-8"
   inkscape:window-maximized="1"
   inkscape:current-layer="g3070"
   fit-margin-top="0"
   fit-margin-left="0"
   fit-margin-right="0"
   fit-margin-bottom="0" />




<path
   d="m -256.28822,-3.7182836 h -39.74749 c -7.4958,0 -13.57231,6.07652 -13.57231,13.57232 V 49.601527 c 0,7.49579 6.07651,13.57231 13.57231,13.57231 h 39.74749 c 7.49579,0 13.57231,-6.07652 13.57231,-13.57231 V 9.8540364 c 0,-7.4958 -6.07652,-13.57232 -13.57231,-13.57232 z m -4.84726,35.8696906 h -26.15384 l 8.93736,8.30723 -1.98349,2.12988 -12.79191,-11.89419 12.79094,-11.89226 1.9835,2.12988 -8.94222,8.31014 h 26.15966 v 2.90932 z"
   id="path5"
   style="fill:#4e9a06"
   inkscape:connector-curvature="0" /><path
   d="m -185.5183,-74.488197 h -39.74749 c -7.4958,0 -13.57232,6.076518 -13.57232,13.572313 v 39.747488 c 0,7.495793 6.07652,13.5723124 13.57232,13.5723124 h 39.74749 c 7.49579,0 13.57231,-6.0765194 13.57231,-13.5723124 v -39.747488 c 0,-7.495795 -6.07652,-13.572313 -13.57231,-13.572313 z m -10.59416,31.739823 -8.79486,-9.46475 v 27.166925 h -2.90836 v -26.117009 l -7.8225,8.415803 -2.12988,-1.983496 11.89419,-12.791905 11.89226,12.790935 -2.13085,1.983497 z"
   id="path7"
   style="fill:#204a87"
   inkscape:connector-curvature="0" /><path
   d="m -185.5183,-3.7182836 h -39.74749 c -7.4958,0 -13.57232,6.07652 -13.57232,13.57232 V 49.601527 c 0,7.49579 6.07652,13.57231 13.57232,13.57231 h 39.74749 c 7.49579,0 13.57231,-6.07652 13.57231,-13.57231 V 9.8540364 c 0,-7.4958 -6.07652,-13.57232 -13.57231,-13.57232 z m -19.38999,48.4735206 -11.89226,-12.79093 2.12989,-1.9835 7.82444,8.41968 v -25.6381 h 2.90835 v 26.67832 l 8.79389,-9.4599 2.12988,1.9835 -11.89419,12.79093 z"
   id="path9"
   style="fill:#204a87"
   inkscape:connector-curvature="0" /><text
   xml:space="preserve"
   style="font-size:38.77803802px;font-style:normal;font-variant:normal;font-weight:normal;font-stretch:normal;text-align:center;line-height:125%;letter-spacing:0px;word-spacing:0px;text-anchor:middle;fill:#204a87;fill-opacity:1;stroke:none;font-family:Open Sans;-inkscape-font-specification:Open Sans"
   x="-206.21001"
   y="-127.03006"
   id="text2992"
   sodipodi:linespacing="125%"><tspan
     sodipodi:role="line"
     id="tspan2994"
     x="-206.21001"
     y="-127.03006"
     style="font-size:31.02243042px;fill:#204a87">Previous</tspan><tspan
     sodipodi:role="line"
     x="-206.21001"
     y="-88.252022"
     id="tspan2996"
     style="font-size:31.02243042px;fill:#204a87">Verse</tspan></text>

<text
   sodipodi:linespacing="125%"
   id="text2998"
   y="100.72482"
   x="-204.58922"
   style="font-size:38.77803802px;font-style:normal;font-variant:normal;font-weight:normal;font-stretch:normal;text-align:center;line-height:125%;letter-spacing:0px;word-spacing:0px;text-anchor:middle;fill:#204a87;fill-opacity:1;stroke:none;font-family:Open Sans;-inkscape-font-specification:Open Sans"
   xml:space="preserve"><tspan
     y="100.72482"
     x="-204.58922"
     id="tspan3000"
     sodipodi:role="line"
     style="font-size:31.02243042px;fill:#204a87">Next</tspan><tspan
     id="tspan3002"
     y="139.50285"
     x="-204.58922"
     sodipodi:role="line"
     style="font-size:31.02243042px;fill:#204a87">Verse</tspan></text>

<text
   sodipodi:linespacing="125%"
   id="text3010"
   y="17.995913"
   x="-376.6897"
   style="font-size:38.77803802px;font-style:normal;font-variant:normal;font-weight:normal;font-stretch:normal;text-align:center;line-height:125%;letter-spacing:0px;word-spacing:0px;text-anchor:middle;fill:#4e9a06;fill-opacity:1;stroke:none;font-family:Open Sans;-inkscape-font-specification:Open Sans"
   xml:space="preserve"><tspan
     y="17.995913"
     x="-376.6897"
     id="tspan3012"
     sodipodi:role="line"
     style="font-size:31.02243042px;fill:#4e9a06">Previous</tspan><tspan
     id="tspan3014"
     y="56.773949"
     x="-376.6897"
     sodipodi:role="line"
     style="font-size:31.02243042px;fill:#4e9a06">Song</tspan></text>

<g
   id="g3070"
   transform="translate(-147.09253,-114.15378)"><path
   sodipodi:nodetypes="sssssssss"
   inkscape:connector-curvature="0"
   style="fill:#555753"
   id="path3"
   d="m 200.806,116.41965 -39.74749,0 c -7.49579,0 -13.57231,6.07652 -13.57231,13.57232 l 0,39.74749 c 0,7.49579 6.07652,13.57231 13.57231,13.57231 l 39.74749,0 c 7.4958,0 13.57232,-6.07652 13.57232,-13.57231 l 0,-39.74749 c 0,-7.4958 -6.07652,-13.57232 -13.57232,-13.57232 z" /><text
   sodipodi:linespacing="125%"
   id="text3004"
   y="137.82332"
   x="226.66492"
   style="font-size:38.77803802px;font-style:normal;font-variant:normal;font-weight:normal;font-stretch:normal;text-align:center;line-height:125%;letter-spacing:0px;word-spacing:0px;text-anchor:middle;fill:#555753;fill-opacity:1;stroke:none;font-family:Open Sans;-inkscape-font-specification:Open Sans"
   xml:space="preserve"
   inkscape:export-xdpi="158.84"
   inkscape:export-ydpi="158.84"><tspan
     style="font-size:31.02243042px;text-align:start;text-anchor:start;fill:#555753"
     id="tspan3008"
     y="137.82332"
     x="226.66492"
     sodipodi:role="line">Blank</tspan><tspan
     style="font-size:31.02243042px;text-align:start;text-anchor:start;fill:#555753"
     id="tspan3018"
     y="176.60135"
     x="226.66492"
     sodipodi:role="line">Display</tspan></text>

<text
   sodipodi:linespacing="125%"
   id="text3062"
   y="153.10982"
   x="159.50523"
   style="font-size:40px;font-style:normal;font-variant:normal;font-weight:normal;font-stretch:normal;line-height:125%;letter-spacing:0px;word-spacing:0px;fill:#eeeeec;fill-opacity:1;stroke:none;font-family:Open Sans;-inkscape-font-specification:Open Sans"
   xml:space="preserve"><tspan
     y="153.10982"
     x="159.50523"
     id="tspan3064"
     sodipodi:role="line">&gt;</tspan></text>

<text
   xml:space="preserve"
   style="font-size:40px;font-style:normal;font-variant:normal;font-weight:normal;font-stretch:normal;line-height:125%;letter-spacing:0px;word-spacing:0px;fill:#eeeeec;fill-opacity:1;stroke:none;font-family:Open Sans;-inkscape-font-specification:Open Sans"
   x="159.50523"
   y="167.10982"
   id="text3066"
   sodipodi:linespacing="125%"><tspan
     style="font-size:48px"
     sodipodi:role="line"
     id="tspan3068"
     x="159.50523"
     y="167.10982">.</tspan></text>

</g></svg>